<svg viewBox="0 0 1500 1500" xmlns="http://www.w3.org/2000/svg"><path d="m565.8 364.8h865.2v563.3h-865.2z" fill="#fff"/><path d="m1430.5 365.3v562.3h-864.2v-562.3zm1-1h-866.2v564.3h866.2z"/><path d="m781 1081.5c1.1 5.5 5.5 3.8 8.9 3.9h60.8c3.3-3.1 7.6-2.4 11.5-2.4h273.1c4.2 0 8.8-1 12.3 2.8-39.8 13.6-79.7 27.2-119.5 40.8-9.1 3.1-18.1 6.4-27.2 9.5-75.4 0-150.7-.2-226.1-.3-3.7 0-7.4 0-12.5 0 6.4-18.6 12.6-36.5 18.7-54.3z" fill="#c5c6c8"/><path d="m1499.7 360.6c0-19.2-14.3-28.7-33.9-29.4s-18.6-.2-27.9 0c17.3 6.7 23.9 19.5 23.9 37.8-.2 184.4-.3 368.8 0 553.2 0 18.2-6.4 31-23.1 38.5 7.7.1 15.4.4 23.1.4 21 0 37.7-7.1 37.7-28.1 0-141 .1-429.1.1-572.2z" fill="#f89a16"/><path d="m991.4 1168.2c7.7 0 10.4-2.6 9.7-10.4-.7-7.4-.2-14.9-.2-22.3 2.1-5.1 7.3-5.4 11.5-6.8 44.5-14.8 88.9-29.7 133.1-45.1 2.5-.8 3.7-2.6 3.8-5.2.2-23.9 0-47.8 0-71.7 0-4.6-.5-9.4 2.5-13.5 14.4-3.7 28.7-4.7 43 .4.1 32.2.6 64.5 0 96.7-.1 9.3 1.7 12.8 11.9 12.3 18.6.5 30.7 1.1 49.9 1.1 3 0-8.2-.5-5.3 1.3-3.7 5.4 3.1 1.9-2 1.4-31.9-.3-53.7.1-85.7 0-6.4 0-8.7 3-8.7 9.1.2 13 .2 26 0 39 0 6.7 2.7 9.5 9.4 9.4 10.9-.1 21.7-.2 32.6 0 4.2 0 8.8-.8 12 3.4-21.4 1.8-42.7.9-64.1.9-127.6 0-15.9 0-143.5-.2-11.4 0-10.1 0-10.1 0z" fill="#f89a16"/><path d="m1265.6 1104.5c-30.9 6.8-50.6 31.5-52 64.2-.8.2-1.8-.2-2.6 0-17.3-.1-34.5-.4-51.8-.3-4.4 0-7-.4-6.9-6 .3-17.9.2-35.8 0-53.7 0-4.3.9-6.3 5.7-6.2 34.5.2 69.1.2 103.6.3 1.6 0 3.2-.1 3.9 1.8z"/><path d="m1194.9 994.1c-14.1 0-28.2 0-42.3 0-5.8-9.9-2.8-20.3-2.1-30.6.5-1.1 1.3-2 2.2-2.7 89.8-.1 179.7-.2 269.5-.3 3.1 0 6.2.3 9.2.5-3.3 1.6-6.7.7-10.1.8-72.4 0-144.7.1-217.1-.1-7.2 0-9.9 1.6-9.3 9.2 0 7.4 0 15.5-.2 23.2z" fill="#cc7f3e"/><path d="m1422.9 330.8c-267.4 0-534.8 0-802.2 0-2.5 0-5-.2-7.4-.3-13.7 0-27.4 0-41.1 0-20.3 2.6-30.7 14.6-30.7 36.1v238.5c0 3.3 1 6.8-1.2 10.3-7.8-3-15.4-6.5-23.4-8.7-6.5-1.9-8-5.3-8.2-11.8-2.4-66.2-32.8-116.6-93.6-142.2-79.7-33.5-156-20.5-225.6 30.7-38.6 28.3-65.3 66.5-89 107.3-46.4 79.8-83.4 163.2-96 255.6-7.3 53.3-6 106.4 8.5 158.6 27.8 99.8 107.7 162.2 208.1 162.6 104.1.3 208.2.5 312.4.7 17.1 0 34.2-.8 51.3-.3 47.8 1.5 95.7 0 143.5.4h264.1c1.5 0 3.1-.1 4.6 0 4.3.3 6.5-2 6.8-5.9.6-8.9 2.1-17.9-1.5-26.6-4.1-3.8-9.3-3-14.2-3-36.6 0-73.3 0-109.9 0-33.2 0-68.8 0-102 0-11.3 0-11.9-.9-8.3-11.8 3.8-11.6 7.8-23.1 11.5-34.7 1.3-3.7 1-2.5 1.7-4.9 2-6.1 4.1-12.3 6.1-18.4l27.9-83.4c2.7-7.9.6-9-6.5-8.1-33 4.4-56.2 21.8-68.3 52.7-8.8 22.7-16 45.9-24 68.9-1 .5-1.9 1-2.9 1.6-4.1 12.2-4.6 12.4-18 12.3-5.1 0-10.3.2-15.4.2-3.5.9-7.1 1.6-10.7 2.3-2.4-.8-1-5.4-.3-7.7 13.4-40.5 26.9-80.9 40.4-121.3.8-2.4 1.6-4.9 2.6-8.2 0 0 0 0 0-.1-.2-.2-.4-.4-.6-.6-28.2.3-49.6 12.1-66.2 33.9-10 13.1-13.3 29.1-18.7 44.2-6.4 18.1-12.4 36.3-18.3 54.6-1.2 3.6-2.2 6-6.7 5.9-25.1-.2-50.3 0-77.2 0 30.8-46.1 43.5-95.7 37.1-149.2h288.2c1 .7 1.6 1.5 2.1 2.4-.2 93.4 54.7 93.5 54.9.1 3.7.5 11.1 4 11.1.3 0-2.9 174.2-1.9 176.6-1.8 0 19.4 38.9 1.3 58.3 1.6 20.8 0 35.2.2 52.8 0 71.9-.6 143.9-1.8 215.9-1.9 3.4 0 6.8.4 10.2-.4 2.4-.2 4.8-.4 7.2-.6 8.5-1.2 14.9-5.7 19.8-12.6 5.7-8.1 6.4-17.3 6.4-26.7 0-182.9 0-365.7 0-548.6 0-5.9-.2-11.8-1.9-17.5-3.8-12.8-10.6-22.4-25.1-23.9l-15-.3zm-881.6 557.1c0 .5-.5 1-1.3 2.5-29.3-54-72.2-90.1-130.3-107.8-1.8-.5-3.3-1-5.4-1.3-16.8-2.7-25.9-10.4-29-26.9 11-2.7 22.7-5.2 33.8-9.7 25.9-10.5 47.7-26.4 64.9-48.2 15.8-20 37.3-25.2 61.1-25.5 3.6 0 6.3.6 6.3 5.6-.2 70.4-.2 140.9-.2 211.3zm865.3 27.9c-270.1-.2-540.2-.2-810.4 0-7.8 0-9.7-2-9.6-9.7.3-71.7.2-143.5.2-215.2v-8.4c4.8-.3 8.2 2.1 11.8 3.7 84.5 37.3 152.8 93.9 203.7 171.2 6.3 9.6 7.2 9.6 14.4.2 9.6-12.6 10.2-26.4 4.3-40.5-10.8-26-29.2-46.7-49.3-65.8-51.1-48.4-111.4-82.5-175-111.2-7.5-3.4-10.2-7.1-10.2-15.7.4-78.9.3-157.7 0-236.6 0-7.6 1-10.5 9.8-10.4 270.1.3 540.2.3 810.4 0 7.9 0 9.6 2.2 9.6 9.8-.2 173-.2 345.9 0 518.9 0 7.9-2.2 9.6-9.8 9.6z"/><path d="m460 627.3c-17 22.8-44.3 31.1-70.2 22-24.3-8.6-41.5-33.6-40.4-58.9 1.2-27.7 18.9-50.5 44.8-57.5 25.5-7 52.1 2.7 66.7 25-9.6-4.3-18.8-6.7-28.4-4.6-9.4 2.1-17.3 6.7-23.2 14.4-10.2 13.1-11 31.1-2 45.3 10.1 15.8 24.8 20 52.8 14.3z" fill="#fdfdfd"/><path d="m906.7 961h187.5c.9.8 1.6 1.8 2.1 2.8 2 10.4 1.1 20.9.7 31.4-.1 2.7 9.4 6.6 4.7 6.4-4.6-7.4.3-18.7 0-26.6-.5-11.9 13.4-12.6-24.6-12.6-38.1 0-76.7 0-114.2 0-12 0-16.2.2-16.4 12.1-.1 5.5 0 11.7.5 19.7-5.1 4-10.2 2.7-15.9 2.7-7.7 0-15.4.5-23.1 0-3.6-1.3-4.1-4.5-4.2-7.5-.2-8.6-1.2-17.2.8-25.8.5-1.1 1.3-1.9 2.3-2.6z" fill="#cb7f3e"/><path d="m669.2 1109.5c15.4-6.2 31-12 47.1-16.3-3.7 16.8-3.7 16.9-20.3 16.8-8.9 0-17.9-.3-26.8-.5z" fill="#c5c6c8"/><path d="m1094.8 962.5c-.3-.5-.5-1-.6-1.6h58.6c0 .6-.3 1.2-.7 1.7-1.9 1.9-4.3 2.6-6.8 2.7-14.6.4-29.2.4-43.8 0-2.5 0-4.9-.8-6.8-2.7z" fill="#2c1d08"/><path d="m1152.1 951.1c-19.1 0-38.2 2.7-57.3 2.7-1.2 12.7 1.5 34.3-1.7 46.9-3.6 19.3-17.9 32-37.4 32.2-24.2.3-48.4 0-72.6 0-4.2-.3-8.1-1-11.6-2-8.5 0-17.1 0-25.6-.2-17.3-.3-29.8-10.1-34.8-26.8-.8-2.6-.7-5.6-3.4-7.3-3-11.2-.3-34.1-1.6-45.4-14.9 0-29.8 3.3-44.7 2.7-7.5-.3-9.4 10.8-9.3 18 .3 34.1.3 68.3 0 102.4 0 7.1 1.6 9.6 9.2 9.6 96.9-.3 193.8-.2 290.7-.2l.2-132.4z"/><path d="m946.8 994.1c2.8 23.6 12.6 34 36.3 38.7-13.9.1-27.9.9-41.8.3-18.4-.8-32.6-16.8-33.7-36.6 5.4-4.6 11.9-1.8 17.9-2.2 7.1-.5 14.3-.1 21.4-.1z" fill="#f89a16"/><path d="m330.3 629.9c-15 .3-29.9.2-43.3-8.2-17.3-10.9-29.8-25.5-33.2-46.1-3.2-19.1-3.9-38.4 1.2-57.3 4.9-18.1 16.2-31.6 32.5-41.1 5.2-3 6.7-2.6 6.7 3.7-.2 23.3-.1 46.6 0 69.9 0 13.4 9.6 25.7 22.1 28.6 11.7 2.8 24.7-3.3 31.3-14.4 2.3-3.9 2.8-8 2.8-12.5 0-22.3 0-44.6 0-66.9 0-3.5-1.2-7.4 2.2-10.3 23.4 10.5 35.4 29.4 40.1 53.8 9.6 24.7.6 65.7-18.4 83.5-2.4 2.3-9.4 8.4-14 10.6-11.5 5.4-16.4 6.9-29.8 6.7z" fill="#f89a16"/><path d="m352.1 475.3c-.5-15.1-1.2-24-1.7-36 0-15.9 0-31.8-.3-47.6-.3-14.1-8.1-23.2-22.1-26.3-30.2-2-60.5-.3-90.7-.9 0 0-.1 0-.2 0-3.8 0-8.1.4-11.7.8-27.5 2.3-48.7 26-49 55.1-.3 24.7-.2 49.4-.3 74.1 17.2-14.3 35.7-26.6 55.6-36.7 2.9-3.7 1-8.3 1.1-12.7.2-10.6.3-21.1.4-31.6h.5c17.7 0 35.3.3 53 0 5.7-.1 7.7 1.7 7.2 7.3-.5 6.3-.3 12.6-.4 19 0 2.3.3 4.7.3 7q.2 20.7-20.4 21.2c-34.3.9-62.2 23.8-68.9 57.2-2.6 12.8-1.4 25.9-1 38.9.9 28.6 19.9 55.1 47.4 62.9 25.8 7.3 51.3 6 77.8 2.8-4.1.5-3.8.2-8.2 0-19.8-.5-38-11.3-50.3-26.2-23.6-28.6-22.5-82.8 2-110.8 4.8-5.5 10.4-10 17.8-12.7 1.4 3.8.9 7.2.9 10.4.1 20.7-.5 41.4.2 62 .6 16.4 14.8 29.7 30.6 29.8 16 .1 30.1-11.5 30.6-27.1.7-26.6.9-53.3-.1-80z" fill="#cc803e"/><g fill="#f89a16"><path d="m1338.6 1168.6c-.3-36.6-30.1-66.3-66.8-66.3s-66.5 29.6-66.8 66.3z"/><path d="m894.3 727-158.3-59.9v-43.2l158.3-59.9v40.9l-143 52.2v-23.3l143 52.2v40.9z"/><path d="m986.8 680.8c0-7.5 1.3-14.2 3.8-20.1s5.8-11.2 9.6-16c3.9-4.8 8-9.1 12.5-13.1 4.4-4 8.6-7.8 12.5-11.5s7.1-7.5 9.6-11.5 3.8-8.5 3.8-13.6c0-7.8-3.3-14.1-9.8-19s-15.1-7.3-25.8-7.3-20.3 2.2-28.4 6.5-14.8 10.4-20.1 18.1l-40.2-23.6c9.1-13.7 21.5-24.6 37.1-32.6s34.6-12 57-12 31.6 2.4 44.2 7.2 22.5 11.7 29.6 20.8 10.6 20.2 10.6 33.3-1.3 16.9-4 23.4-6.1 12.3-10.3 17.1c-4.2 4.9-8.7 9.4-13.5 13.6s-9.3 8.3-13.5 12.3-7.6 8.2-10.3 12.6-4 9.5-4 15.3h-50.6zm25.3 83.8c-9.1 0-16.6-3-22.6-9s-9-13.1-9-21.3 3-15.5 9-21.1c6-5.7 13.5-8.5 22.6-8.5s17.2 2.8 23.1 8.5 8.8 12.7 8.8 21.1-2.9 15.3-8.8 21.3-13.6 9-23.1 9z"/><path d="m1131.1 727v-40.9l143-52.2v23.3l-143-52.2v-40.9l158.3 59.9v43.2l-158.3 59.9z"/><path d="m330.3 629.9c-15 .3-29.9.2-43.3-8.2-17.3-10.9-29.8-25.5-33.2-46.1-3.2-19.1-3.9-38.4 1.2-57.3 4.9-18.1 16.2-31.6 32.5-41.1 5.2-3 6.7-2.6 6.7 3.7-.2 23.3-.1 46.6 0 69.9 0 13.4 9.6 25.7 22.1 28.6 11.7 2.8 24.7-3.3 31.3-14.4 2.3-3.9 2.8-8 2.8-12.5 0-22.3 0-44.6 0-66.9 0-3.5-1.2-7.4 2.2-10.3 23.4 10.5 35.4 29.4 40.1 53.8 9.6 24.7.6 65.7-18.4 83.5-2.4 2.3-9.4 8.4-14 10.6-11.5 5.4-16.4 6.9-29.8 6.7z"/></g></svg>
